<svg width="169" height="48" viewBox="0 0 169 48" fill="none" xmlns="http://www.w3.org/2000/svg">
<path d="M23 47C35.7027 47 46 36.7027 46 24C46 11.2973 35.7027 1 23 1C10.2973 1 0 11.2973 0 24C0 36.7027 10.2973 47 23 47Z" fill="#D6001D"/>
<path fill-rule="evenodd" clip-rule="evenodd" d="M12.9401 20.7706V12.959H9.19922V33.199H12.9363L12.9401 26.0667C12.9363 24.8697 13.0506 23.9655 13.2792 23.3531C13.504 22.7417 13.8586 22.2843 14.3528 21.9781C14.8363 21.6739 15.3924 21.5208 16.0125 21.5208C16.5541 21.5208 17.0027 21.6394 17.3631 21.8796C17.7159 22.1054 17.9806 22.4428 18.114 22.8364C18.2565 23.2383 18.3243 24.1837 18.3243 25.6763V33.199H22.0662V24.8467C22.0662 23.5684 22.0022 22.6259 21.8743 22.0202C21.7455 21.4117 21.5071 20.8596 21.1544 20.3553C20.8037 19.8559 20.2844 19.4444 19.5897 19.1239C18.8969 18.8014 18.1247 18.6388 17.2624 18.6388C15.5881 18.6388 14.1445 19.3526 12.9401 20.7706ZM27.6741 20.7706V12.959H23.9371V33.199H27.6741V26.0667C27.6741 24.8697 27.7884 23.9655 28.0132 23.3531C28.2409 22.7417 28.5975 22.2843 29.0848 21.9781C29.5693 21.6739 30.1254 21.5208 30.7445 21.5208C31.2861 21.5208 31.7386 21.6394 32.0952 21.8796C32.449 22.1047 32.7146 22.4422 32.848 22.8364C32.9904 23.2383 33.0612 24.1837 33.0612 25.6763V33.199H36.7992V24.8467C36.7992 23.5684 36.7352 22.6259 36.6064 22.0202C36.4834 21.4227 36.2385 20.8563 35.8865 20.3553C35.5377 19.8559 35.0183 19.4444 34.3265 19.1239C33.6328 18.8014 32.8548 18.6388 31.9954 18.6388C30.3221 18.6388 28.8794 19.3526 27.6741 20.7706Z" fill="white"/>
<path d="M77.96 34H74.408V24.592H66.6V34H63.048V12.656H66.6V21.456H74.408V12.656H77.96V34ZM95.7768 34H91.8088L88.1927 25.936H85.5688V34H82.0168V12.656H89.3767C91.2114 12.656 92.7048 13.264 93.8568 14.48C95.0088 15.696 95.5848 17.2853 95.5848 19.248C95.5848 20.976 95.2008 22.352 94.4328 23.376C93.6648 24.3787 92.7368 25.0293 91.6488 25.328L95.7768 34ZM88.8648 22.8C89.8034 22.8 90.5501 22.48 91.1048 21.84C91.6808 21.2 91.9688 20.3467 91.9688 19.28C91.9688 18.2133 91.6808 17.36 91.1048 16.72C90.5501 16.08 89.8034 15.76 88.8648 15.76H85.5688V22.8H88.8648ZM103.055 34.384C100.644 34.384 98.7561 33.648 97.3908 32.176L98.8307 29.936C99.3214 30.4693 99.9401 30.928 100.687 31.312C101.455 31.6747 102.223 31.856 102.991 31.856C103.78 31.856 104.399 31.6747 104.847 31.312C105.316 30.9493 105.551 30.4587 105.551 29.84C105.551 29.3067 105.284 28.8587 104.751 28.496C104.239 28.1333 103.609 27.824 102.863 27.568C102.116 27.312 101.359 27.024 100.591 26.704C99.8441 26.3627 99.2041 25.8507 98.6708 25.168C98.1588 24.464 97.9028 23.6 97.9028 22.576C97.9028 21.3173 98.3721 20.272 99.3108 19.44C100.271 18.5867 101.572 18.16 103.215 18.16C105.241 18.16 106.937 18.8213 108.303 20.144L106.959 22.32C106.063 21.232 104.836 20.688 103.279 20.688C102.575 20.688 101.999 20.8587 101.551 21.2C101.124 21.5413 100.911 21.968 100.911 22.48C100.911 22.9067 101.103 23.28 101.487 23.6C101.871 23.8987 102.34 24.1333 102.895 24.304C103.471 24.4747 104.089 24.7093 104.751 25.008C105.412 25.2853 106.02 25.5947 106.575 25.936C107.151 26.2773 107.631 26.7787 108.015 27.44C108.399 28.1013 108.591 28.88 108.591 29.776C108.591 31.12 108.079 32.2293 107.055 33.104C106.052 33.9573 104.719 34.384 103.055 34.384ZM122.715 32.176C121.712 33.648 120.347 34.384 118.619 34.384C116.891 34.384 115.568 33.5627 114.651 31.92V39.888H111.451V18.544H114.651V20.592C115.099 19.824 115.675 19.2267 116.379 18.8C117.083 18.3733 117.829 18.16 118.619 18.16C120.368 18.16 121.744 18.8853 122.747 20.336C123.749 21.7867 124.251 23.76 124.251 26.256C124.251 28.7307 123.739 30.704 122.715 32.176ZM117.659 31.568C118.725 31.568 119.536 31.0773 120.091 30.096C120.667 29.0933 120.955 27.8133 120.955 26.256C120.955 24.6987 120.667 23.4293 120.091 22.448C119.536 21.4667 118.725 20.976 117.659 20.976C117.061 20.976 116.475 21.1787 115.899 21.584C115.344 21.9893 114.928 22.4907 114.651 23.088V29.424C114.928 30.0213 115.344 30.5333 115.899 30.96C116.475 31.3653 117.061 31.568 117.659 31.568ZM138.369 34H135.201V32.432C134.262 33.7333 132.907 34.384 131.137 34.384C129.814 34.384 128.694 33.9253 127.777 33.008C126.859 32.0693 126.401 30.8107 126.401 29.232C126.401 27.6533 126.859 26.4267 127.777 25.552C128.694 24.656 129.814 24.208 131.137 24.208C132.95 24.208 134.305 24.8267 135.201 26.064V23.824C135.201 22.8853 134.934 22.16 134.401 21.648C133.889 21.136 133.153 20.88 132.193 20.88C130.785 20.88 129.505 21.4667 128.353 22.64L127.105 20.4C128.598 18.9067 130.486 18.16 132.769 18.16C134.475 18.16 135.83 18.5973 136.833 19.472C137.857 20.3253 138.369 21.648 138.369 23.44V34ZM132.289 32.176C133.569 32.176 134.539 31.6107 135.201 30.48V28.144C134.902 27.6107 134.486 27.1947 133.953 26.896C133.419 26.576 132.865 26.416 132.289 26.416C131.478 26.416 130.827 26.6827 130.337 27.216C129.846 27.7493 129.601 28.4427 129.601 29.296C129.601 30.1493 129.846 30.8427 130.337 31.376C130.827 31.9093 131.478 32.176 132.289 32.176ZM152.858 32.304C151.749 33.6907 150.181 34.384 148.154 34.384C146.127 34.384 144.485 33.6267 143.226 32.112C141.989 30.576 141.37 28.624 141.37 26.256C141.37 23.888 141.989 21.9467 143.226 20.432C144.463 18.9173 146.106 18.16 148.154 18.16C150.181 18.16 151.749 18.8533 152.858 20.24L151.226 22.416C150.479 21.456 149.562 20.976 148.474 20.976C147.301 20.976 146.373 21.4773 145.69 22.48C145.007 23.4827 144.666 24.7413 144.666 26.256C144.666 27.792 145.007 29.0613 145.69 30.064C146.373 31.0667 147.301 31.568 148.474 31.568C149.541 31.568 150.458 31.088 151.226 30.128L152.858 32.304ZM161.595 34.384C159.483 34.384 157.798 33.6373 156.539 32.144C155.281 30.6507 154.651 28.688 154.651 26.256C154.651 23.952 155.249 22.032 156.443 20.496C157.659 18.9387 159.27 18.16 161.275 18.16C163.302 18.16 164.881 18.928 166.011 20.464C167.142 22 167.707 23.9733 167.707 26.384V27.312H157.883C157.947 28.6347 158.331 29.712 159.035 30.544C159.739 31.3547 160.699 31.76 161.915 31.76C163.302 31.76 164.465 31.2053 165.403 30.096L166.939 32.016C165.553 33.5947 163.771 34.384 161.595 34.384ZM164.603 25.04C164.582 23.9093 164.294 22.9173 163.739 22.064C163.206 21.1893 162.374 20.752 161.243 20.752C160.155 20.752 159.334 21.1893 158.779 22.064C158.225 22.9387 157.915 23.9307 157.851 25.04H164.603Z" fill="#303233"/>
</svg>
