<svg width="14" height="16" viewBox="0 0 14 16" fill="none" >
<path d="M9.66667 4.0026V3.46927C9.66667 2.72253 9.66667 2.34917 9.52134 2.06395C9.39351 1.81307 9.18954 1.60909 8.93865 1.48126C8.65344 1.33594 8.28007 1.33594 7.53333 1.33594H6.46667C5.71993 1.33594 5.34656 1.33594 5.06135 1.48126C4.81046 1.60909 4.60649 1.81307 4.47866 2.06395C4.33333 2.34917 4.33333 2.72253 4.33333 3.46927V4.0026M5.66667 7.66927V11.0026M8.33333 7.66927V11.0026M1 4.0026H13M11.6667 4.0026V11.4693C11.6667 12.5894 11.6667 13.1494 11.4487 13.5773C11.2569 13.9536 10.951 14.2595 10.5746 14.4513C10.1468 14.6693 9.58677 14.6693 8.46667 14.6693H5.53333C4.41323 14.6693 3.85318 14.6693 3.42535 14.4513C3.04903 14.2595 2.74307 13.9536 2.55132 13.5773C2.33333 13.1494 2.33333 12.5894 2.33333 11.4693V4.0026" stroke-width="1.33333" stroke-linecap="round" stroke-linejoin="round"/>
</svg>
